<svg viewBox="0 0 500 500" height="500px" width="500px" xmlns="http://www.w3.org/2000/svg">
  <style>
    :root {
      --c1: #D3F8E2;
      --c2: #E4C1F9;
      --c3: #F694C1;
      --c4: #EDE7B1;
      --c5: #A9DEF9;
      --c6: #02A9EA;
      --p1: url(#p_1);
      --i: 0px;
      --anim: animLine 0.5s 3s forwards;
      will-change: transform;
      background-color: var(--c1);
      filter: none;
    }
  </style>
  <path d="M0 0v500h500V0z" fill="var(--c1)" />
  <defs>
    <g id="Unit" stroke-width="5" stroke-linejoin="round" stroke-linecap="round" stroke="var(--c1)">
      <rect x="100" y="400" ry="5" width="50" height="50" transform-origin="100 400"
        transform="skewY(45) scale(.6 1)" />
      <rect x="100" y="400" ry="5" width="50" height="50" transform-origin="100 400" fill="rgba(0,0,0,0.5)"
        transform="skewY(45) scale(.6 1)" />
      <rect x="50" y="450" ry="5" width="50" height="50" transform-origin="50 450" transform="skewX(45) scale(1 .6)" />
      <rect x="50" y="450" ry="5" width="50" height="50" transform-origin="50 450" fill="rgba(0,0,0,0.3)"
        transform="skewX(45) scale(1 .6)" />
      <rect x="50" y="400" ry="5" width="50" height="50" />
      <rect x="50" y="400" ry="5" width="50" height="50" fill="var(--p1)" />
    </g>
    <g id="UnitH">
      <use href="#Unit" />
      <use href="#Unit" x="50" />
    </g>
    <g id="UnitV">
      <use href="#Unit" y="-50" />
      <use href="#Unit" />
    </g>
    <g id="S1" fill="var(--c4)" stroke="var(--c4)">
      <use href="#UnitH" x="50" y="-50" />
      <use href="#UnitH" />
    </g>
    <pattern id="p_1" patternUnits="userSpaceOnUse" width="50" height="50">
      <rect width="50" height="50" ry="8" fill="none" stroke="var(--c1)" stroke-width="5" />
      <path fill="#444040"
        d="m 8.22125,10.582081 v 5.24288 h 2.62144 v 2.62144 H 8.22125 v 5.24288 h 5.24288 v -3.93216 h 2.62144 v -5.24288 h -2.62144 v -3.93216 z m 25.69318,0 v 5.24288 h 2.62144 v 2.62144 h -2.62144 v 5.24288 h 5.24288 v -3.93216 h 2.62144 v -5.24288 h -2.62144 v -3.93216 z M 11.892801,28.932159 v 3.93216 h 2.62144 v 2.62144 h 2.62144 v 2.62144 h 2.62144 v 1.31072 h 3.93216 6.553599 v -1.31072 h 2.62144 v -2.62144 h 2.62144 v -2.62144 h 2.62144 v -3.93216 h -3.93216 v 2.62144 H 31.5536 v 2.62144 h -2.62144 v 1.31072 h -5.242879 -2.62144 v -1.31072 h -2.62144 v -2.62144 h -2.62144 v -2.62144 z" />
    </pattern>
    <filter id="select-highlight" width="200%" height="200%" x="-50%" y="-50%" filterRes="1000">
      <feOffset in="SourceGraphic" result="offset" />
      <feGaussianBlur stdDeviation="2" />
      <feComponentTransfer result="offsetmorph">
        <feFuncA type="table" tableValues="0 1 1 1 1 1 1 1 1 1 1 1 1 1 1 1 1 1 1" />
      </feComponentTransfer>
      <feFlood flood-color="var(--c3)" />
      <feComposite operator="in" in2="offsetmorph" result="stroke" />
      <feGaussianBlur stdDeviation="2" />
      <feComponentTransfer result="offsetmorph2">
        <feFuncA type="table" tableValues="0 1 1 1 1 1 1 1 1 1 1 1 1 1 1 1 1 1 1" />
      </feComponentTransfer>
      <feFlood flood-color="var(--c4)" />
      <feComposite operator="in" in2="offsetmorph2" result="blur" />
      <feGaussianBlur stdDeviation="5" />
      <feComponentTransfer result="offsetmorph">
        <feFuncA type="table" tableValues="0 0.05 1 1 1 1 1 1 1 1 1 1 1 1 1 1 1 1 1" />
      </feComponentTransfer>
      <feFlood flood-color="var(--c5)" />
      <feComposite operator="in" in2="offsetmorph" result="stroke2" />
      <feGaussianBlur stdDeviation="5" />
      <feComponentTransfer result="offsetmorph2">
        <feFuncA type="table" tableValues="0 0.05 1 1 1 1 1 1 1 1 1 1 1 1 1 1 1 1 1" />
      </feComponentTransfer>
      <feFlood flood-color="var(--c6)" />
      <feComposite operator="in" in2="offsetmorph2" result="blur2" />
      <feMerge>
        <feMergeNode in="blur2" />
        <feMergeNode in="stroke2" />
        <feMergeNode in="blur" />
        <feMergeNode in="stroke" />
        <feMergeNode in="SourceGraphic" />
      </feMerge>
    </filter>
  </defs>
  <g transform-origin="50%" transform="scale(0.94)">
    <rect x="10" y="10" ry="500" width="480" height="480" fill="var(--c3)" stroke="var(--c6)" stroke-width="10" />
    <rect x="30" y="30" ry="500" width="440" height="440" fill="var(--c5)" stroke="var(--c4)" stroke-width="10" />
    <rect x="40" y="40" ry="500" width="420" height="420" fill="var(--c3)"
      style="animation: stopAnim 10s ease-in-out infinite" />
    <rect x="50" y="50" ry="500" width="400" height="400" stroke="var(--c1)" fill="var(--c5)" stroke-width="3" />
    <use href="#S1" filter="url(#select-highlight)" style="transform-origin:50% 50%;x:110;y:-160"
      transform="rotate(45) scale(1.5)" />
  </g>
</svg>